<?xml version="1.0" encoding="iso-8859-1"?>
<!-- Generator: Adobe Illustrator 19.0.0, SVG Export Plug-In . SVG Version: 6.00 Build 0)  -->
<svg version="1.1" id="Layer_1" xmlns="http://www.w3.org/2000/svg" xmlns:xlink="http://www.w3.org/1999/xlink" x="0px" y="0px"
	 viewBox="0 0 492.426 492.426" style="enable-background:new 0 0 492.426 492.426;" xml:space="preserve">
<g>
	<g>
		<path d="M460.264,32.156c-42.875-42.875-112.625-42.875-155.519,0L0.005,336.906l5.981,149.529l149.529,5.99l304.75-304.75
			C503.139,144.801,503.139,75.041,460.264,32.156z M283.962,80.787l33.186,33.188L86.04,345.093l-33.189-33.187L283.962,80.787z
			 M331.07,127.898l33.451,33.453L133.416,392.466l-33.453-33.451L331.07,127.898z M147.688,472.406l-122.76-4.913l-4.904-122.76
			l18.904-18.904l127.673,127.664L147.688,472.406z M180.524,439.57l-33.184-33.182l231.103-231.113l33.186,33.189L180.524,439.57z
			 M446.341,173.752l-20.788,20.788L297.885,66.864l20.784-20.784c35.211-35.192,92.481-35.192,127.673,0
			C481.534,81.281,481.534,138.56,446.341,173.752z"/>
	</g>
</g>
<g>
</g>
<g>
</g>
<g>
</g>
<g>
</g>
<g>
</g>
<g>
</g>
<g>
</g>
<g>
</g>
<g>
</g>
<g>
</g>
<g>
</g>
<g>
</g>
<g>
</g>
<g>
</g>
<g>
</g>
</svg>
